<?xml version="1.0" encoding="UTF-8"?>
<!-- This file is generated by npm run build:icons -->
<svg xmlns="http://www.w3.org/2000/svg" xmlns:xlink="http://www.w3.org/1999/xlink" width="0" height="0">
	<defs>
		<symbol id="basket" viewBox="0 0 505 505" xml:space="preserve">
			<circle style="fill:
#018FAD;" cx="252.5" cy="252.5" r="252.5"></circle>
			<path style="fill:#FFFFFF;" d="M392.6,135H113c-2.4,0-4.4,2-4.4,4.4v22.8c0,2.4,2,4.4,4.4,4.4h15.8l29.1,224.3
	c1,8,7.8,13.9,15.9,13.9h158.1c8,0,14.8-6,15.9-13.9l29.1-224.3h15.8c2.4,0,4.4-2,4.4-4.4v-22.8C397,137,395,135,392.6,135z
	 M160.6,166.6h41.5l1.6,47.9h-36.8L160.6,166.6z M170.9,246.1h33.7l1.7,51.3h-28.8L170.9,246.1z M187.4,373.2l-5.7-44.3h25.7
	l1.4,44.3H187.4z M265.2,373.2h-24.8l-1.4-44.3h27.7L265.2,373.2z M267.7,297.4h-29.8l-1.7-51.3h33.1L267.7,297.4z M270.4,214.5
	h-35.1l-1.6-47.9H272L270.4,214.5z M318.2,373.2h-21.4l1.4-44.3h25.7L318.2,373.2z M328,297.4h-28.7l1.7-51.3h33.7L328,297.4z
	 M338.8,214.5H302l1.6-47.9h41.5L338.8,214.5z"></path>
		</symbol>
		<symbol fill="
#8B4513" viewBox="0 0 256 256" id="battery-charging">
			<path
				d="M88,8a8.00008,8.00008,0,0,1,8-8h64a8,8,0,0,1,0,16H96A8.00008,8.00008,0,0,1,88,8ZM208,56.00781v152a24.02624,24.02624,0,0,1-24,24H72a24.02624,24.02624,0,0,1-24-24v-152a24.02625,24.02625,0,0,1,24-24H184A24.02624,24.02624,0,0,1,208,56.00781Zm-57.375,71.51563A7.98172,7.98172,0,0,0,144,124.00781l-20.1875-.01562,11.61719-29.01563a8.00086,8.00086,0,0,0-14.85938-5.9375l-16,39.98438A8.001,8.001,0,0,0,112,139.99219l20.1875.01562-11.61719,29.03125a8.00086,8.00086,0,0,0,14.85938,5.9375l16-40A8.00973,8.00973,0,0,0,150.625,127.52344Z" />
		</symbol>
		<symbol viewBox="0 0 34 34" aria-hidden="true" role="img" class="iconify iconify--twemoji"
			preserveAspectRatio="xMidYMid meet" id="flag">
			<path fill="
#E73323" d="M31 27a4 4 0 0 1-4 4H9a4 4 0 0 1-4-4V9a4 4 0 0 1 4-4h18a4 4 0 0 1 4 4v18z"></path>
			<path fill="#FFF" d="M25 16.063h-5v-5h-4v5h-5V20h5v5.063h4V20h5z"></path>
		</symbol>
		<symbol viewBox="0 0 24 24" fill="none" id="heart">
			<path fill-rule="evenodd" clip-rule="evenodd"
				d="M12 6.00019C10.2006 3.90317 7.19377 3.2551 4.93923 5.17534C2.68468 7.09558 2.36727 10.3061 4.13778 12.5772C5.60984 14.4654 10.0648 18.4479 11.5249 19.7369C11.6882 19.8811 11.7699 19.9532 11.8652 19.9815C11.9483 20.0062 12.0393 20.0062 12.1225 19.9815C12.2178 19.9532 12.2994 19.8811 12.4628 19.7369C13.9229 18.4479 18.3778 14.4654 19.8499 12.5772C21.6204 10.3061 21.3417 7.07538 19.0484 5.17534C16.7551 3.2753 13.7994 3.90317 12 6.00019Z"
				stroke="#000000" stroke-width="2" stroke-linecap="round" stroke-linejoin="round"></path>
		</symbol>
		<symbol id="leaf" viewBox="0 0 512 512" xml:space="preserve">
			<path class="st0" d="M476.188,24.146c-6.748-3.504-60.728,38.022-185.304,67.086C230.347,105.355,62.5,153.527,65.286,392.815
		L0,431.218l20.338,35.598c63.073-40.692,236.014-120.042,409.766-323.621c0,0-26.875,134.419-334.096,311.056
		c103.685,53.758,249.604,53.758,360.979-76.806C568.346,246.888,476.188,24.146,476.188,24.146z"></path>
		</symbol>
		<symbol viewBox="0 0 128 128" aria-hidden="true" role="img" class="iconify iconify--noto"
			preserveAspectRatio="xMidYMid meet" id="star">
			<path
				d="M68.05 7.23l13.46 30.7a7.047 7.047 0 0 0 5.82 4.19l32.79 2.94c3.71.54 5.19 5.09 2.5 7.71l-24.7 20.75c-2 1.68-2.91 4.32-2.36 6.87l7.18 33.61c.63 3.69-3.24 6.51-6.56 4.76L67.56 102a7.033 7.033 0 0 0-7.12 0l-28.62 16.75c-3.31 1.74-7.19-1.07-6.56-4.76l7.18-33.61c.54-2.55-.36-5.19-2.36-6.87L5.37 52.78c-2.68-2.61-1.2-7.17 2.5-7.71l32.79-2.94a7.047 7.047 0 0 0 5.82-4.19l13.46-30.7c1.67-3.36 6.45-3.36 8.11-.01z"
				fill="#fdd835"></path>
			<path
				d="M67.07 39.77l-2.28-22.62c-.09-1.26-.35-3.42 1.67-3.42c1.6 0 2.47 3.33 2.47 3.33l6.84 18.16c2.58 6.91 1.52 9.28-.97 10.68c-2.86 1.6-7.08.35-7.73-6.13z"
				fill="#ffff8d"></path>
			<path
				d="M95.28 71.51L114.9 56.2c.97-.81 2.72-2.1 1.32-3.57c-1.11-1.16-4.11.51-4.11.51l-17.17 6.71c-5.12 1.77-8.52 4.39-8.82 7.69c-.39 4.4 3.56 7.79 9.16 3.97z"
				fill="#f4b400"></path>
		</symbol>
	</defs>
</svg>